<svg id="visual" viewBox="0 0 900 600" width="900" height="600" xmlns="http://www.w3.org/2000/svg" xmlns:xlink="http://www.w3.org/1999/xlink" version="1.1"><rect x="0" y="0" width="900" height="600" fill="#ffffff"></rect><defs><linearGradient id="grad1_0" x1="33.3%" y1="100%" x2="100%" y2="0%"><stop offset="20%" stop-color="#77216f" stop-opacity="1"></stop><stop offset="80%" stop-color="#77216f" stop-opacity="1"></stop></linearGradient></defs><defs><linearGradient id="grad1_1" x1="33.3%" y1="100%" x2="100%" y2="0%"><stop offset="20%" stop-color="#77216f" stop-opacity="1"></stop><stop offset="80%" stop-color="#934f8a" stop-opacity="1"></stop></linearGradient></defs><defs><linearGradient id="grad1_2" x1="33.3%" y1="100%" x2="100%" y2="0%"><stop offset="20%" stop-color="#af7aa7" stop-opacity="1"></stop><stop offset="80%" stop-color="#934f8a" stop-opacity="1"></stop></linearGradient></defs><defs><linearGradient id="grad1_3" x1="33.3%" y1="100%" x2="100%" y2="0%"><stop offset="20%" stop-color="#af7aa7" stop-opacity="1"></stop><stop offset="80%" stop-color="#caa5c3" stop-opacity="1"></stop></linearGradient></defs><defs><linearGradient id="grad1_4" x1="33.3%" y1="100%" x2="100%" y2="0%"><stop offset="20%" stop-color="#e5d2e1" stop-opacity="1"></stop><stop offset="80%" stop-color="#caa5c3" stop-opacity="1"></stop></linearGradient></defs><defs><linearGradient id="grad1_5" x1="33.3%" y1="100%" x2="100%" y2="0%"><stop offset="20%" stop-color="#e5d2e1" stop-opacity="1"></stop><stop offset="80%" stop-color="#ffffff" stop-opacity="1"></stop></linearGradient></defs><defs><linearGradient id="grad2_0" x1="0%" y1="100%" x2="66.7%" y2="0%"><stop offset="20%" stop-color="#77216f" stop-opacity="1"></stop><stop offset="80%" stop-color="#77216f" stop-opacity="1"></stop></linearGradient></defs><defs><linearGradient id="grad2_1" x1="0%" y1="100%" x2="66.7%" y2="0%"><stop offset="20%" stop-color="#934f8a" stop-opacity="1"></stop><stop offset="80%" stop-color="#77216f" stop-opacity="1"></stop></linearGradient></defs><defs><linearGradient id="grad2_2" x1="0%" y1="100%" x2="66.7%" y2="0%"><stop offset="20%" stop-color="#934f8a" stop-opacity="1"></stop><stop offset="80%" stop-color="#af7aa7" stop-opacity="1"></stop></linearGradient></defs><defs><linearGradient id="grad2_3" x1="0%" y1="100%" x2="66.7%" y2="0%"><stop offset="20%" stop-color="#caa5c3" stop-opacity="1"></stop><stop offset="80%" stop-color="#af7aa7" stop-opacity="1"></stop></linearGradient></defs><defs><linearGradient id="grad2_4" x1="0%" y1="100%" x2="66.7%" y2="0%"><stop offset="20%" stop-color="#caa5c3" stop-opacity="1"></stop><stop offset="80%" stop-color="#e5d2e1" stop-opacity="1"></stop></linearGradient></defs><defs><linearGradient id="grad2_5" x1="0%" y1="100%" x2="66.7%" y2="0%"><stop offset="20%" stop-color="#ffffff" stop-opacity="1"></stop><stop offset="80%" stop-color="#e5d2e1" stop-opacity="1"></stop></linearGradient></defs><g transform="translate(900, 600)"><path d="M-378.6 0C-348 -25.5 -317.5 -51 -313.9 -84.1C-310.4 -117.3 -333.8 -158.1 -327.9 -189.3C-321.9 -220.5 -286.7 -242 -252.4 -252.4C-218.2 -262.9 -185.1 -262.3 -159.5 -276.3C-133.9 -290.2 -115.9 -318.6 -90.6 -338.1C-65.3 -357.5 -32.6 -368.1 0 -378.6L0 0Z" fill="#f2e8f0"></path><path d="M-315.5 0C-290 -21.2 -264.6 -42.5 -261.6 -70.1C-258.6 -97.7 -278.2 -131.8 -273.2 -157.7C-268.3 -183.7 -238.9 -201.6 -210.4 -210.4C-181.9 -219.1 -154.2 -218.6 -132.9 -230.2C-111.6 -241.8 -96.6 -265.5 -75.5 -281.7C-54.4 -298 -27.2 -306.7 0 -315.5L0 0Z" fill="#d7bbd2"></path><path d="M-252.4 0C-232 -17 -211.7 -34 -209.3 -56.1C-206.9 -78.2 -222.5 -105.4 -218.6 -126.2C-214.6 -147 -191.1 -161.3 -168.3 -168.3C-145.5 -175.3 -123.4 -174.9 -106.3 -184.2C-89.3 -193.5 -77.3 -212.4 -60.4 -225.4C-43.5 -238.4 -21.8 -245.4 0 -252.4L0 0Z" fill="#bd90b5"></path><path d="M-189.3 0C-174 -12.7 -158.7 -25.5 -157 -42.1C-155.2 -58.6 -166.9 -79.1 -163.9 -94.6C-161 -110.2 -143.3 -121 -126.2 -126.2C-109.1 -131.5 -92.5 -131.2 -79.8 -138.1C-67 -145.1 -58 -159.3 -45.3 -169C-32.6 -178.8 -16.3 -184 0 -189.3L0 0Z" fill="#a16598"></path><path d="M-126.2 0C-116 -8.5 -105.8 -17 -104.6 -28C-103.5 -39.1 -111.3 -52.7 -109.3 -63.1C-107.3 -73.5 -95.6 -80.7 -84.1 -84.1C-72.7 -87.6 -61.7 -87.4 -53.2 -92.1C-44.6 -96.7 -38.6 -106.2 -30.2 -112.7C-21.8 -119.2 -10.9 -122.7 0 -126.2L0 0Z" fill="#85397d"></path><path d="M-63.1 0C-58 -4.2 -52.9 -8.5 -52.3 -14C-51.7 -19.5 -55.6 -26.4 -54.6 -31.5C-53.7 -36.7 -47.8 -40.3 -42.1 -42.1C-36.4 -43.8 -30.8 -43.7 -26.6 -46C-22.3 -48.4 -19.3 -53.1 -15.1 -56.3C-10.9 -59.6 -5.4 -61.3 0 -63.1L0 0Z" fill="#77216f"></path></g><g transform="translate(0, 0)"><path d="M378.6 0C359.8 30.9 341.1 61.9 322.6 86.4C304.2 111 286.1 129.2 281.5 162.5C276.8 195.8 285.7 244.3 267.7 267.7C249.7 291.1 204.7 289.6 171.5 297C138.3 304.5 116.7 321 90.1 336.1C63.4 351.2 31.7 364.9 0 378.6L0 0Z" fill="#f2e8f0"></path><path d="M315.5 0C299.8 25.8 284.2 51.6 268.8 72C253.5 92.5 238.4 107.7 234.5 135.4C230.7 163.2 238.1 203.5 223.1 223.1C208.1 242.6 170.6 241.3 142.9 247.5C115.2 253.8 97.3 267.5 75.1 280.1C52.9 292.7 26.4 304.1 0 315.5L0 0Z" fill="#d7bbd2"></path><path d="M252.4 0C239.9 20.6 227.4 41.3 215.1 57.6C202.8 74 190.7 86.1 187.6 108.3C184.6 130.5 190.5 162.8 178.5 178.5C166.4 194.1 136.5 193 114.3 198C92.2 203 77.8 214 60 224.1C42.3 234.2 21.1 243.3 0 252.4L0 0Z" fill="#bd90b5"></path><path d="M189.3 0C179.9 15.5 170.5 30.9 161.3 43.2C152.1 55.5 143 64.6 140.7 81.2C138.4 97.9 142.9 122.1 133.8 133.8C124.8 145.6 102.4 144.8 85.8 148.5C69.1 152.3 58.4 160.5 45 168.1C31.7 175.6 15.9 182.5 0 189.3L0 0Z" fill="#a16598"></path><path d="M126.2 0C119.9 10.3 113.7 20.6 107.5 28.8C101.4 37 95.4 43.1 93.8 54.2C92.3 65.3 95.2 81.4 89.2 89.2C83.2 97 68.2 96.5 57.2 99C46.1 101.5 38.9 107 30 112C21.1 117.1 10.6 121.6 0 126.2L0 0Z" fill="#85397d"></path><path d="M63.1 0C60 5.2 56.8 10.3 53.8 14.4C50.7 18.5 47.7 21.5 46.9 27.1C46.1 32.6 47.6 40.7 44.6 44.6C41.6 48.5 34.1 48.3 28.6 49.5C23 50.8 19.5 53.5 15 56C10.6 58.5 5.3 60.8 0 63.1L0 0Z" fill="#77216f"></path></g></svg>