<svg id="visual" viewBox="0 0 900 600" width="900" height="600" xmlns="http://www.w3.org/2000/svg" xmlns:xlink="http://www.w3.org/1999/xlink" version="1.1"><rect x="0" y="0" width="900" height="600" fill="#1d2124"></rect><defs><linearGradient id="grad1_0" x1="33.3%" y1="0%" x2="100%" y2="100%"><stop offset="20%" stop-color="#e95420" stop-opacity="1"></stop><stop offset="80%" stop-color="#e95420" stop-opacity="1"></stop></linearGradient></defs><defs><linearGradient id="grad1_1" x1="33.3%" y1="0%" x2="100%" y2="100%"><stop offset="20%" stop-color="#e95420" stop-opacity="1"></stop><stop offset="80%" stop-color="#753a74" stop-opacity="1"></stop></linearGradient></defs><defs><linearGradient id="grad1_2" x1="33.3%" y1="0%" x2="100%" y2="100%"><stop offset="20%" stop-color="#1d2124" stop-opacity="1"></stop><stop offset="80%" stop-color="#753a74" stop-opacity="1"></stop></linearGradient></defs><defs><linearGradient id="grad2_0" x1="0%" y1="0%" x2="66.7%" y2="100%"><stop offset="20%" stop-color="#e95420" stop-opacity="1"></stop><stop offset="80%" stop-color="#e95420" stop-opacity="1"></stop></linearGradient></defs><defs><linearGradient id="grad2_1" x1="0%" y1="0%" x2="66.7%" y2="100%"><stop offset="20%" stop-color="#753a74" stop-opacity="1"></stop><stop offset="80%" stop-color="#e95420" stop-opacity="1"></stop></linearGradient></defs><defs><linearGradient id="grad2_2" x1="0%" y1="0%" x2="66.7%" y2="100%"><stop offset="20%" stop-color="#753a74" stop-opacity="1"></stop><stop offset="80%" stop-color="#1d2124" stop-opacity="1"></stop></linearGradient></defs><g transform="translate(900, 0)"><path d="M0 351.5C-40.2 323.4 -80.4 295.3 -112.1 270.7C-143.9 246.1 -167.3 225.2 -205.8 205.8C-244.3 186.4 -298 168.6 -324.8 134.5C-351.6 100.5 -351.6 50.2 -351.5 0L0 0Z" fill="#2f3657"></path><path d="M0 234.4C-26.8 215.6 -53.6 196.8 -74.8 180.5C-95.9 164.1 -111.5 150.1 -137.2 137.2C-162.9 124.2 -198.6 112.4 -216.5 89.7C-234.4 67 -234.4 33.5 -234.4 0L0 0Z" fill="#c33061"></path><path d="M0 117.2C-13.4 107.8 -26.8 98.4 -37.4 90.2C-48 82 -55.8 75.1 -68.6 68.6C-81.4 62.1 -99.3 56.2 -108.3 44.8C-117.2 33.5 -117.2 16.7 -117.2 0L0 0Z" fill="#e95420"></path></g><g transform="translate(0, 600)"><path d="M0 -351.5C36.4 -327.3 72.9 -303 120.5 -291C168.2 -279 227.1 -279.2 248.6 -248.6C270.1 -217.9 254.2 -156.4 265.2 -109.8C276.1 -63.3 313.8 -31.6 351.5 0L0 0Z" fill="#2f3657"></path><path d="M0 -234.4C24.3 -218.2 48.6 -202 80.4 -194C112.1 -186 151.4 -186.2 165.7 -165.7C180.1 -145.3 169.5 -104.3 176.8 -73.2C184.1 -42.2 209.2 -21.1 234.4 0L0 0Z" fill="#c33061"></path><path d="M0 -117.2C12.1 -109.1 24.3 -101 40.2 -97C56.1 -93 75.7 -93.1 82.9 -82.9C90 -72.6 84.7 -52.1 88.4 -36.6C92 -21.1 104.6 -10.5 117.2 0L0 0Z" fill="#e95420"></path></g></svg>