<svg id="visual" viewBox="0 0 900 600" width="900" height="600" xmlns="http://www.w3.org/2000/svg" xmlns:xlink="http://www.w3.org/1999/xlink" version="1.1"><rect x="0" y="0" width="900" height="600" fill="#222626"></rect><path d="M0 127L15 131.7C30 136.3 60 145.7 90 146C120 146.3 150 137.7 180 137.8C210 138 240 147 270 149.3C300 151.7 330 147.3 360 142.8C390 138.3 420 133.7 450 131.8C480 130 510 131 540 132C570 133 600 134 630 138.5C660 143 690 151 720 151.2C750 151.3 780 143.7 810 141.7C840 139.7 870 143.3 885 145.2L900 147L900 0L885 0C870 0 840 0 810 0C780 0 750 0 720 0C690 0 660 0 630 0C600 0 570 0 540 0C510 0 480 0 450 0C420 0 390 0 360 0C330 0 300 0 270 0C240 0 210 0 180 0C150 0 120 0 90 0C60 0 30 0 15 0L0 0Z" fill="#e95420"></path><path d="M0 130L15 131C30 132 60 134 90 131.5C120 129 150 122 180 121C210 120 240 125 270 125C300 125 330 120 360 120.8C390 121.7 420 128.3 450 132.3C480 136.3 510 137.7 540 135.8C570 134 600 129 630 129C660 129 690 134 720 132.8C750 131.7 780 124.3 810 121.7C840 119 870 121 885 122L900 123L900 0L885 0C870 0 840 0 810 0C780 0 750 0 720 0C690 0 660 0 630 0C600 0 570 0 540 0C510 0 480 0 450 0C420 0 390 0 360 0C330 0 300 0 270 0C240 0 210 0 180 0C150 0 120 0 90 0C60 0 30 0 15 0L0 0Z" fill="#e23c37"></path><path d="M0 95L15 97.2C30 99.3 60 103.7 90 104.7C120 105.7 150 103.3 180 101.5C210 99.7 240 98.3 270 99.5C300 100.7 330 104.3 360 103.2C390 102 420 96 450 93.3C480 90.7 510 91.3 540 95.5C570 99.7 600 107.3 630 107.3C660 107.3 690 99.7 720 96.7C750 93.7 780 95.3 810 95.2C840 95 870 93 885 92L900 91L900 0L885 0C870 0 840 0 810 0C780 0 750 0 720 0C690 0 660 0 630 0C600 0 570 0 540 0C510 0 480 0 450 0C420 0 390 0 360 0C330 0 300 0 270 0C240 0 210 0 180 0C150 0 120 0 90 0C60 0 30 0 15 0L0 0Z" fill="#d62749"></path><path d="M0 92L15 90.3C30 88.7 60 85.3 90 81.5C120 77.7 150 73.3 180 74.3C210 75.3 240 81.7 270 83.3C300 85 330 82 360 82.8C390 83.7 420 88.3 450 90.8C480 93.3 510 93.7 540 92.5C570 91.3 600 88.7 630 86C660 83.3 690 80.7 720 79.7C750 78.7 780 79.3 810 79.2C840 79 870 78 885 77.5L900 77L900 0L885 0C870 0 840 0 810 0C780 0 750 0 720 0C690 0 660 0 630 0C600 0 570 0 540 0C510 0 480 0 450 0C420 0 390 0 360 0C330 0 300 0 270 0C240 0 210 0 180 0C150 0 120 0 90 0C60 0 30 0 15 0L0 0Z" fill="#c41858"></path><path d="M0 62L15 62.7C30 63.3 60 64.7 90 63.8C120 63 150 60 180 61.3C210 62.7 240 68.3 270 68C300 67.7 330 61.3 360 61.2C390 61 420 67 450 67.7C480 68.3 510 63.7 540 60.5C570 57.3 600 55.7 630 54.5C660 53.3 690 52.7 720 54.3C750 56 780 60 810 62.3C840 64.7 870 65.3 885 65.7L900 66L900 0L885 0C870 0 840 0 810 0C780 0 750 0 720 0C690 0 660 0 630 0C600 0 570 0 540 0C510 0 480 0 450 0C420 0 390 0 360 0C330 0 300 0 270 0C240 0 210 0 180 0C150 0 120 0 90 0C60 0 30 0 15 0L0 0Z" fill="#ae1564"></path><path d="M0 51L15 48C30 45 60 39 90 36.8C120 34.7 150 36.3 180 38.8C210 41.3 240 44.7 270 44.8C300 45 330 42 360 41.7C390 41.3 420 43.7 450 44.8C480 46 510 46 540 46.3C570 46.7 600 47.3 630 47.3C660 47.3 690 46.7 720 45.7C750 44.7 780 43.3 810 41.7C840 40 870 38 885 37L900 36L900 0L885 0C870 0 840 0 810 0C780 0 750 0 720 0C690 0 660 0 630 0C600 0 570 0 540 0C510 0 480 0 450 0C420 0 390 0 360 0C330 0 300 0 270 0C240 0 210 0 180 0C150 0 120 0 90 0C60 0 30 0 15 0L0 0Z" fill="#941a6c"></path><path d="M0 26L15 25.5C30 25 60 24 90 23.8C120 23.7 150 24.3 180 22.5C210 20.7 240 16.3 270 16.8C300 17.3 330 22.7 360 23C390 23.3 420 18.7 450 19.3C480 20 510 26 540 26.3C570 26.7 600 21.3 630 19.8C660 18.3 690 20.7 720 20.5C750 20.3 780 17.7 810 15.7C840 13.7 870 12.3 885 11.7L900 11L900 0L885 0C870 0 840 0 810 0C780 0 750 0 720 0C690 0 660 0 630 0C600 0 570 0 540 0C510 0 480 0 450 0C420 0 390 0 360 0C330 0 300 0 270 0C240 0 210 0 180 0C150 0 120 0 90 0C60 0 30 0 15 0L0 0Z" fill="#77216f"></path></svg>