<svg id="visual" viewBox="0 0 900 600" width="900" height="600" xmlns="http://www.w3.org/2000/svg" xmlns:xlink="http://www.w3.org/1999/xlink" version="1.1"><rect x="0" y="0" width="900" height="600" fill="#222626"></rect><path d="M0 91L21.5 97.2C43 103.3 86 115.7 128.8 119.5C171.7 123.3 214.3 118.7 257.2 112.7C300 106.7 343 99.3 385.8 101.8C428.7 104.3 471.3 116.7 514.2 121.7C557 126.7 600 124.3 642.8 125.8C685.7 127.3 728.3 132.7 771.2 130.3C814 128 857 118 878.5 113L900 108L900 0L878.5 0C857 0 814 0 771.2 0C728.3 0 685.7 0 642.8 0C600 0 557 0 514.2 0C471.3 0 428.7 0 385.8 0C343 0 300 0 257.2 0C214.3 0 171.7 0 128.8 0C86 0 43 0 21.5 0L0 0Z" fill="#e95420"></path><path d="M0 103L21.5 97.7C43 92.3 86 81.7 128.8 78C171.7 74.3 214.3 77.7 257.2 81.7C300 85.7 343 90.3 385.8 96.2C428.7 102 471.3 109 514.2 109.7C557 110.3 600 104.7 642.8 103.7C685.7 102.7 728.3 106.3 771.2 109.3C814 112.3 857 114.7 878.5 115.8L900 117L900 0L878.5 0C857 0 814 0 771.2 0C728.3 0 685.7 0 642.8 0C600 0 557 0 514.2 0C471.3 0 428.7 0 385.8 0C343 0 300 0 257.2 0C214.3 0 171.7 0 128.8 0C86 0 43 0 21.5 0L0 0Z" fill="#dd3141"></path><path d="M0 90L21.5 86C43 82 86 74 128.8 69C171.7 64 214.3 62 257.2 62.7C300 63.3 343 66.7 385.8 65.5C428.7 64.3 471.3 58.7 514.2 62.8C557 67 600 81 642.8 86C685.7 91 728.3 87 771.2 85.7C814 84.3 857 85.7 878.5 86.3L900 87L900 0L878.5 0C857 0 814 0 771.2 0C728.3 0 685.7 0 642.8 0C600 0 557 0 514.2 0C471.3 0 428.7 0 385.8 0C343 0 300 0 257.2 0C214.3 0 171.7 0 128.8 0C86 0 43 0 21.5 0L0 0Z" fill="#c41858"></path><path d="M0 44L21.5 46.5C43 49 86 54 128.8 56C171.7 58 214.3 57 257.2 58C300 59 343 62 385.8 58.5C428.7 55 471.3 45 514.2 39.7C557 34.3 600 33.7 642.8 36.8C685.7 40 728.3 47 771.2 51.7C814 56.3 857 58.7 878.5 59.8L900 61L900 0L878.5 0C857 0 814 0 771.2 0C728.3 0 685.7 0 642.8 0C600 0 557 0 514.2 0C471.3 0 428.7 0 385.8 0C343 0 300 0 257.2 0C214.3 0 171.7 0 128.8 0C86 0 43 0 21.5 0L0 0Z" fill="#a11768"></path><path d="M0 23L21.5 22.5C43 22 86 21 128.8 24.2C171.7 27.3 214.3 34.7 257.2 37.8C300 41 343 40 385.8 38.8C428.7 37.7 471.3 36.3 514.2 33.3C557 30.3 600 25.7 642.8 26C685.7 26.3 728.3 31.7 771.2 35.3C814 39 857 41 878.5 42L900 43L900 0L878.5 0C857 0 814 0 771.2 0C728.3 0 685.7 0 642.8 0C600 0 557 0 514.2 0C471.3 0 428.7 0 385.8 0C343 0 300 0 257.2 0C214.3 0 171.7 0 128.8 0C86 0 43 0 21.5 0L0 0Z" fill="#77216f"></path></svg>