<svg id="visual" viewBox="0 0 900 600" width="900" height="600" xmlns="http://www.w3.org/2000/svg" xmlns:xlink="http://www.w3.org/1999/xlink" version="1.1"><rect x="0" y="0" width="900" height="600" fill="#222626"></rect><path d="M0 507L21.5 500.8C43 494.7 86 482.3 128.8 478.5C171.7 474.7 214.3 479.3 257.2 485.3C300 491.3 343 498.7 385.8 496.2C428.7 493.7 471.3 481.3 514.2 476.3C557 471.3 600 473.7 642.8 472.2C685.7 470.7 728.3 465.3 771.2 467.7C814 470 857 480 878.5 485L900 490L900 601L878.5 601C857 601 814 601 771.2 601C728.3 601 685.7 601 642.8 601C600 601 557 601 514.2 601C471.3 601 428.7 601 385.8 601C343 601 300 601 257.2 601C214.3 601 171.7 601 128.8 601C86 601 43 601 21.5 601L0 601Z" fill="#e95420"></path><path d="M0 495L21.5 500.3C43 505.7 86 516.3 128.8 520C171.7 523.7 214.3 520.3 257.2 516.3C300 512.3 343 507.7 385.8 501.8C428.7 496 471.3 489 514.2 488.3C557 487.7 600 493.3 642.8 494.3C685.7 495.3 728.3 491.7 771.2 488.7C814 485.7 857 483.3 878.5 482.2L900 481L900 601L878.5 601C857 601 814 601 771.2 601C728.3 601 685.7 601 642.8 601C600 601 557 601 514.2 601C471.3 601 428.7 601 385.8 601C343 601 300 601 257.2 601C214.3 601 171.7 601 128.8 601C86 601 43 601 21.5 601L0 601Z" fill="#dd3141"></path><path d="M0 508L21.5 512C43 516 86 524 128.8 529C171.7 534 214.3 536 257.2 535.3C300 534.7 343 531.3 385.8 532.5C428.7 533.7 471.3 539.3 514.2 535.2C557 531 600 517 642.8 512C685.7 507 728.3 511 771.2 512.3C814 513.7 857 512.3 878.5 511.7L900 511L900 601L878.5 601C857 601 814 601 771.2 601C728.3 601 685.7 601 642.8 601C600 601 557 601 514.2 601C471.3 601 428.7 601 385.8 601C343 601 300 601 257.2 601C214.3 601 171.7 601 128.8 601C86 601 43 601 21.5 601L0 601Z" fill="#c41858"></path><path d="M0 554L21.5 551.5C43 549 86 544 128.8 542C171.7 540 214.3 541 257.2 540C300 539 343 536 385.8 539.5C428.7 543 471.3 553 514.2 558.3C557 563.7 600 564.3 642.8 561.2C685.7 558 728.3 551 771.2 546.3C814 541.7 857 539.3 878.5 538.2L900 537L900 601L878.5 601C857 601 814 601 771.2 601C728.3 601 685.7 601 642.8 601C600 601 557 601 514.2 601C471.3 601 428.7 601 385.8 601C343 601 300 601 257.2 601C214.3 601 171.7 601 128.8 601C86 601 43 601 21.5 601L0 601Z" fill="#a11768"></path><path d="M0 575L21.5 575.5C43 576 86 577 128.8 573.8C171.7 570.7 214.3 563.3 257.2 560.2C300 557 343 558 385.8 559.2C428.7 560.3 471.3 561.7 514.2 564.7C557 567.7 600 572.3 642.8 572C685.7 571.7 728.3 566.3 771.2 562.7C814 559 857 557 878.5 556L900 555L900 601L878.5 601C857 601 814 601 771.2 601C728.3 601 685.7 601 642.8 601C600 601 557 601 514.2 601C471.3 601 428.7 601 385.8 601C343 601 300 601 257.2 601C214.3 601 171.7 601 128.8 601C86 601 43 601 21.5 601L0 601Z" fill="#77216f"></path></svg>