<svg id="visual" viewBox="0 0 900 600" width="900" height="600" xmlns="http://www.w3.org/2000/svg" xmlns:xlink="http://www.w3.org/1999/xlink" version="1.1"><rect width="900" height="600" fill="#1e2224"></rect><g><g transform="translate(595 270)"><path d="M0 -77.2L66.9 -38.6L66.9 38.6L0 77.2L-66.9 38.6L-66.9 -38.6Z" fill="#E95420"></path></g><g transform="translate(12 20)"><path d="M0 -69L59.8 -34.5L59.8 34.5L0 69L-59.8 34.5L-59.8 -34.5Z" fill="#E95420"></path></g><g transform="translate(289 163)"><path d="M0 -28L24.2 -14L24.2 14L0 28L-24.2 14L-24.2 -14Z" fill="#E95420"></path></g><g transform="translate(837 512)"><path d="M0 -28L24.2 -14L24.2 14L0 28L-24.2 14L-24.2 -14Z" fill="#E95420"></path></g><g transform="translate(53 502)"><path d="M0 -55L47.6 -27.5L47.6 27.5L0 55L-47.6 27.5L-47.6 -27.5Z" fill="#E95420"></path></g><g transform="translate(47 250)"><path d="M0 -31L26.8 -15.5L26.8 15.5L0 31L-26.8 15.5L-26.8 -15.5Z" fill="#E95420"></path></g><g transform="translate(581 472)"><path d="M0 -53L45.9 -26.5L45.9 26.5L0 53L-45.9 26.5L-45.9 -26.5Z" fill="#E95420"></path></g><g transform="translate(421 268)"><path d="M0 -66L57.2 -33L57.2 33L0 66L-57.2 33L-57.2 -33Z" fill="#E95420"></path></g><g transform="translate(499 14)"><path d="M0 -31L26.8 -15.5L26.8 15.5L0 31L-26.8 15.5L-26.8 -15.5Z" fill="#E95420"></path></g><g transform="translate(845 215)"><path d="M0 -37L32 -18.5L32 18.5L0 37L-32 18.5L-32 -18.5Z" fill="#E95420"></path></g><g transform="translate(679 106)"><path d="M0 -75L65 -37.5L65 37.5L0 75L-65 37.5L-65 -37.5Z" fill="#E95420"></path></g><g transform="translate(217 349)"><path d="M0 -49L42.4 -24.5L42.4 24.5L0 49L-42.4 24.5L-42.4 -24.5Z" fill="#E95420"></path></g><g transform="translate(230 591)"><path d="M0 -35L30.3 -17.5L30.3 17.5L0 35L-30.3 17.5L-30.3 -17.5Z" fill="#E95420"></path></g><g transform="translate(380 434)"><path d="M0 -69L59.8 -34.5L59.8 34.5L0 69L-59.8 34.5L-59.8 -34.5Z" fill="#E95420"></path></g><g transform="translate(851 27)"><path d="M0 -52L45 -26L45 26L0 52L-45 26L-45 -26Z" fill="#E95420"></path></g><g transform="translate(732 381)"><path d="M0 -52L45 -26L45 26L0 52L-45 26L-45 -26Z" fill="#E95420"></path></g><g transform="translate(168 21)"><path d="M0 -63L54.6 -31.5L54.6 31.5L0 63L-54.6 31.5L-54.6 -31.5Z" fill="#E95420"></path></g><g transform="translate(476 594)"><path d="M0 -70L60.6 -35L60.6 35L0 70L-60.6 35L-60.6 -35Z" fill="#E95420"></path></g></g></svg>